<svg id="Layer_1" data-name="Layer 1" xmlns="http://www.w3.org/2000/svg" viewBox="0 0 370.87 822"><path d="M209.71,0c31.2,36.4,32.35,82.64,13.29,102.54-13.05,13.64-35.18,14.53-51.6,6.95-26.58-12.26-43.76-49.27-36.74-88.89C100,149.13,101,251.41,138.33,273.87c29.07,17.5,77.74-15,99.59-29.56,27.22-18.16,70.27-46.9,75.66-95C319.53,96.1,277.76,33.11,209.71,0Zm45.73,176.91c-19.33,26.73-49.26,30.43-54.14,30.94.59-7.55,3.73-36,27.32-58.37a88.78,88.78,0,0,1,40.91-21.87C269.92,134.18,270.46,156.15,255.44,176.91Z"/><path d="M148.83,310.31c47.18-20.21,98.44-56.82,145.63-77,2.57,7.23,18.32,21.34,20.89,28.57-47.85,86.25-23.9,217.69-35.63,307.24-31.38,17.66-28.41,14.43-50.6,26.29-7.05-5.54-68.91-49.26-114-40.52C104,557,83.81,561,72.93,576.4c-22.46,31.9,6.34,96.35,44.82,128.46C185.13,761.06,251.6,742.1,279,715.08c24.43-27.2-1.08-69.85-1.08-69.85-8.72-5.59,59,15.23,75,26.95,26.18,19.19,16.53,46.7,14.65,54.57-6.33,26.57-22.47,43.62-30.48,51a195.49,195.49,0,0,1-47.22,28.79C188.71,849.85,88.19,788.8,80.94,784.25,62,772.36,37.45,756.89,19.56,725.87c-35.74-62-12.56-130.29-7.5-144.25C65.73,496,102,480.66,125.53,483.46a148.82,148.82,0,0,1,20.76,4.3c4.61,1.27,8.45,2.54,11.28,3.54Q153.2,400.81,148.83,310.31Z"/></svg>